<mxfile host="app.diagrams.net" modified="2023-08-27T16:54:18.223Z" agent="Mozilla/5.0 (X11; Ubuntu; Linux x86_64; rv:109.0) Gecko/20100101 Firefox/116.0" etag="x7B666d7cRsybVRs5fEF" version="21.6.9" type="device">
  <diagram name="Page-1" id="b5b7bab2-c9e2-2cf4-8b2a-24fd1a2a6d21">
    <mxGraphModel dx="1434" dy="766" grid="1" gridSize="10" guides="1" tooltips="1" connect="1" arrows="1" fold="1" page="1" pageScale="1" pageWidth="827" pageHeight="1169" background="none" math="0" shadow="0">
      <root>
        <mxCell id="0" />
        <mxCell id="1" parent="0" />
        <mxCell id="Rl8IYNa5S0Cc1M9gbsfP-15" style="edgeStyle=orthogonalEdgeStyle;rounded=0;orthogonalLoop=1;jettySize=auto;html=1;entryX=0;entryY=0;entryDx=0;entryDy=123.5;entryPerimeter=0;endArrow=open;endFill=0;dashed=1;" edge="1" parent="1" source="Rl8IYNa5S0Cc1M9gbsfP-3" target="Rl8IYNa5S0Cc1M9gbsfP-10">
          <mxGeometry relative="1" as="geometry">
            <Array as="points">
              <mxPoint x="480" y="350" />
              <mxPoint x="480" y="324" />
            </Array>
          </mxGeometry>
        </mxCell>
        <mxCell id="Rl8IYNa5S0Cc1M9gbsfP-16" value="&lt;div&gt;&amp;lt;&amp;lt;import&amp;gt;&amp;gt;&lt;/div&gt;" style="edgeLabel;html=1;align=center;verticalAlign=middle;resizable=0;points=[];" vertex="1" connectable="0" parent="Rl8IYNa5S0Cc1M9gbsfP-15">
          <mxGeometry x="-0.5102" y="1" relative="1" as="geometry">
            <mxPoint x="4" y="-9" as="offset" />
          </mxGeometry>
        </mxCell>
        <mxCell id="Rl8IYNa5S0Cc1M9gbsfP-18" style="edgeStyle=orthogonalEdgeStyle;rounded=0;orthogonalLoop=1;jettySize=auto;html=1;entryX=-0.014;entryY=0.713;entryDx=0;entryDy=0;entryPerimeter=0;endArrow=open;endFill=0;dashed=1;" edge="1" parent="1" source="Rl8IYNa5S0Cc1M9gbsfP-3" target="Rl8IYNa5S0Cc1M9gbsfP-11">
          <mxGeometry relative="1" as="geometry">
            <Array as="points">
              <mxPoint x="440" y="375" />
              <mxPoint x="440" y="524" />
            </Array>
          </mxGeometry>
        </mxCell>
        <mxCell id="Rl8IYNa5S0Cc1M9gbsfP-19" value="&amp;lt;&amp;lt;import&amp;gt;&amp;gt;" style="edgeLabel;html=1;align=center;verticalAlign=middle;resizable=0;points=[];" vertex="1" connectable="0" parent="Rl8IYNa5S0Cc1M9gbsfP-18">
          <mxGeometry x="0.5637" y="1" relative="1" as="geometry">
            <mxPoint as="offset" />
          </mxGeometry>
        </mxCell>
        <mxCell id="Rl8IYNa5S0Cc1M9gbsfP-3" value="models" style="shape=folder;fontStyle=1;spacingTop=10;tabWidth=40;tabHeight=14;tabPosition=left;html=1;whiteSpace=wrap;direction=east;" vertex="1" parent="1">
          <mxGeometry x="40" y="180" width="380" height="390" as="geometry" />
        </mxCell>
        <mxCell id="Rl8IYNa5S0Cc1M9gbsfP-6" value="&lt;div&gt;user&lt;/div&gt;&lt;div&gt;&lt;br&gt;&lt;/div&gt;" style="shape=folder;fontStyle=1;spacingTop=10;tabWidth=40;tabHeight=14;tabPosition=left;html=1;whiteSpace=wrap;" vertex="1" parent="1">
          <mxGeometry x="115" y="380" width="230" height="160" as="geometry" />
        </mxCell>
        <mxCell id="Rl8IYNa5S0Cc1M9gbsfP-9" value="&lt;div&gt;instances&lt;/div&gt;" style="shape=folder;fontStyle=1;spacingTop=10;tabWidth=40;tabHeight=14;tabPosition=left;html=1;whiteSpace=wrap;" vertex="1" parent="1">
          <mxGeometry x="195" y="470" width="70" height="50" as="geometry" />
        </mxCell>
        <mxCell id="Rl8IYNa5S0Cc1M9gbsfP-13" style="edgeStyle=orthogonalEdgeStyle;rounded=0;orthogonalLoop=1;jettySize=auto;html=1;entryX=0;entryY=0;entryDx=70;entryDy=32;entryPerimeter=0;endArrow=open;endFill=0;dashed=1;" edge="1" parent="1" source="Rl8IYNa5S0Cc1M9gbsfP-10" target="Rl8IYNa5S0Cc1M9gbsfP-9">
          <mxGeometry relative="1" as="geometry" />
        </mxCell>
        <mxCell id="Rl8IYNa5S0Cc1M9gbsfP-14" value="&lt;div&gt;&amp;lt;&amp;lt;import&amp;gt;&amp;gt;&lt;/div&gt;" style="edgeLabel;html=1;align=center;verticalAlign=middle;resizable=0;points=[];" vertex="1" connectable="0" parent="Rl8IYNa5S0Cc1M9gbsfP-13">
          <mxGeometry x="-0.7465" y="1" relative="1" as="geometry">
            <mxPoint as="offset" />
          </mxGeometry>
        </mxCell>
        <mxCell id="Rl8IYNa5S0Cc1M9gbsfP-17" style="edgeStyle=orthogonalEdgeStyle;rounded=0;orthogonalLoop=1;jettySize=auto;html=1;exitX=0.5;exitY=1;exitDx=0;exitDy=0;exitPerimeter=0;entryX=0.5;entryY=0.106;entryDx=0;entryDy=0;entryPerimeter=0;endArrow=open;endFill=0;dashed=1;" edge="1" parent="1" source="Rl8IYNa5S0Cc1M9gbsfP-10" target="Rl8IYNa5S0Cc1M9gbsfP-11">
          <mxGeometry relative="1" as="geometry" />
        </mxCell>
        <mxCell id="Rl8IYNa5S0Cc1M9gbsfP-20" value="&lt;div&gt;&amp;lt;&amp;lt;import&amp;gt;&amp;gt;&lt;/div&gt;" style="edgeLabel;html=1;align=center;verticalAlign=middle;resizable=0;points=[];" vertex="1" connectable="0" parent="Rl8IYNa5S0Cc1M9gbsfP-17">
          <mxGeometry x="0.135" y="1" relative="1" as="geometry">
            <mxPoint as="offset" />
          </mxGeometry>
        </mxCell>
        <mxCell id="Rl8IYNa5S0Cc1M9gbsfP-10" value="&lt;div&gt;managers&lt;/div&gt;" style="shape=folder;fontStyle=1;spacingTop=10;tabWidth=40;tabHeight=14;tabPosition=left;html=1;whiteSpace=wrap;" vertex="1" parent="1">
          <mxGeometry x="540" y="200" width="210" height="160" as="geometry" />
        </mxCell>
        <mxCell id="Rl8IYNa5S0Cc1M9gbsfP-11" value="&lt;div&gt;system&lt;/div&gt;" style="shape=folder;fontStyle=1;spacingTop=10;tabWidth=40;tabHeight=14;tabPosition=left;html=1;whiteSpace=wrap;" vertex="1" parent="1">
          <mxGeometry x="540" y="410" width="210" height="160" as="geometry" />
        </mxCell>
      </root>
    </mxGraphModel>
  </diagram>
</mxfile>
